<mxfile host="app.diagrams.net" agent="Mozilla/5.0 (Windows NT 10.0; Win64; x64) AppleWebKit/537.36 (KHTML, like Gecko) Chrome/130.0.0.0 Safari/537.36" version="24.8.4">
  <diagram name="Pagina-1" id="nt1B_YL3LEdYYV1clQHA">
    <mxGraphModel dx="714" dy="374" grid="1" gridSize="10" guides="1" tooltips="1" connect="1" arrows="1" fold="1" page="1" pageScale="1" pageWidth="827" pageHeight="1169" math="1" shadow="0">
      <root>
        <mxCell id="0" />
        <mxCell id="1" parent="0" />
        <mxCell id="DwZBgOjns3Ykn3NyLFQ3-1" value="" style="endArrow=none;html=1;rounded=0;" edge="1" parent="1">
          <mxGeometry width="50" height="50" relative="1" as="geometry">
            <mxPoint x="325" y="280" as="sourcePoint" />
            <mxPoint x="475" y="280" as="targetPoint" />
          </mxGeometry>
        </mxCell>
        <mxCell id="DwZBgOjns3Ykn3NyLFQ3-8" style="edgeStyle=orthogonalEdgeStyle;rounded=0;orthogonalLoop=1;jettySize=auto;html=1;endArrow=none;endFill=0;" edge="1" parent="1" source="DwZBgOjns3Ykn3NyLFQ3-7">
          <mxGeometry relative="1" as="geometry">
            <mxPoint x="400" y="280" as="targetPoint" />
          </mxGeometry>
        </mxCell>
        <mxCell id="DwZBgOjns3Ykn3NyLFQ3-9" style="edgeStyle=orthogonalEdgeStyle;rounded=0;orthogonalLoop=1;jettySize=auto;html=1;endArrow=none;endFill=0;" edge="1" parent="1" source="DwZBgOjns3Ykn3NyLFQ3-7">
          <mxGeometry relative="1" as="geometry">
            <mxPoint x="400" y="80" as="targetPoint" />
          </mxGeometry>
        </mxCell>
        <mxCell id="DwZBgOjns3Ykn3NyLFQ3-7" value="\(m\)" style="rounded=0;whiteSpace=wrap;html=1;fontSize=22;fillColor=none;" vertex="1" parent="1">
          <mxGeometry x="360" y="160" width="80" height="60" as="geometry" />
        </mxCell>
        <mxCell id="DwZBgOjns3Ykn3NyLFQ3-10" value="" style="endArrow=classic;html=1;rounded=0;dashed=1;" edge="1" parent="1">
          <mxGeometry width="50" height="50" relative="1" as="geometry">
            <mxPoint x="310" y="280" as="sourcePoint" />
            <mxPoint x="310" y="80" as="targetPoint" />
          </mxGeometry>
        </mxCell>
        <mxCell id="DwZBgOjns3Ykn3NyLFQ3-11" value="\(y\)" style="edgeLabel;html=1;align=center;verticalAlign=middle;resizable=0;points=[];fontSize=15;" vertex="1" connectable="0" parent="DwZBgOjns3Ykn3NyLFQ3-10">
          <mxGeometry x="0.1194" y="-1" relative="1" as="geometry">
            <mxPoint as="offset" />
          </mxGeometry>
        </mxCell>
        <mxCell id="DwZBgOjns3Ykn3NyLFQ3-12" value="" style="endArrow=classic;html=1;rounded=0;" edge="1" parent="1">
          <mxGeometry width="50" height="50" relative="1" as="geometry">
            <mxPoint x="420" y="160" as="sourcePoint" />
            <mxPoint x="420" y="100" as="targetPoint" />
          </mxGeometry>
        </mxCell>
        <mxCell id="DwZBgOjns3Ykn3NyLFQ3-13" value="\(u\)" style="edgeLabel;html=1;align=center;verticalAlign=middle;resizable=0;points=[];" vertex="1" connectable="0" parent="DwZBgOjns3Ykn3NyLFQ3-12">
          <mxGeometry x="0.2933" y="-1" relative="1" as="geometry">
            <mxPoint as="offset" />
          </mxGeometry>
        </mxCell>
        <mxCell id="DwZBgOjns3Ykn3NyLFQ3-14" value="" style="endArrow=classic;html=1;rounded=0;" edge="1" parent="1">
          <mxGeometry width="50" height="50" relative="1" as="geometry">
            <mxPoint x="420" y="220" as="sourcePoint" />
            <mxPoint x="420" y="270" as="targetPoint" />
          </mxGeometry>
        </mxCell>
        <mxCell id="DwZBgOjns3Ykn3NyLFQ3-15" value="\(mg\)" style="edgeLabel;html=1;align=center;verticalAlign=middle;resizable=0;points=[];" vertex="1" connectable="0" parent="DwZBgOjns3Ykn3NyLFQ3-14">
          <mxGeometry x="-0.3349" y="1" relative="1" as="geometry">
            <mxPoint as="offset" />
          </mxGeometry>
        </mxCell>
        <mxCell id="DwZBgOjns3Ykn3NyLFQ3-17" style="edgeStyle=orthogonalEdgeStyle;rounded=0;orthogonalLoop=1;jettySize=auto;html=1;" edge="1" parent="1" source="DwZBgOjns3Ykn3NyLFQ3-16">
          <mxGeometry relative="1" as="geometry">
            <mxPoint x="760" y="190" as="targetPoint" />
          </mxGeometry>
        </mxCell>
        <mxCell id="DwZBgOjns3Ykn3NyLFQ3-18" value="\(y\)" style="edgeLabel;html=1;align=center;verticalAlign=middle;resizable=0;points=[];" vertex="1" connectable="0" parent="DwZBgOjns3Ykn3NyLFQ3-17">
          <mxGeometry x="-0.3344" y="1" relative="1" as="geometry">
            <mxPoint as="offset" />
          </mxGeometry>
        </mxCell>
        <mxCell id="DwZBgOjns3Ykn3NyLFQ3-16" value="\(\frac{1}{s(ms+b)}\)" style="rounded=0;whiteSpace=wrap;html=1;fontSize=22;fillColor=none;" vertex="1" parent="1">
          <mxGeometry x="610" y="165" width="90" height="50" as="geometry" />
        </mxCell>
        <mxCell id="DwZBgOjns3Ykn3NyLFQ3-20" style="edgeStyle=orthogonalEdgeStyle;rounded=0;orthogonalLoop=1;jettySize=auto;html=1;entryX=0;entryY=0.5;entryDx=0;entryDy=0;" edge="1" parent="1" source="DwZBgOjns3Ykn3NyLFQ3-19" target="DwZBgOjns3Ykn3NyLFQ3-16">
          <mxGeometry relative="1" as="geometry" />
        </mxCell>
        <mxCell id="DwZBgOjns3Ykn3NyLFQ3-19" value="" style="ellipse;whiteSpace=wrap;html=1;aspect=fixed;fillColor=none;" vertex="1" parent="1">
          <mxGeometry x="560" y="180" width="20" height="20" as="geometry" />
        </mxCell>
        <mxCell id="DwZBgOjns3Ykn3NyLFQ3-21" value="" style="endArrow=classic;html=1;rounded=0;" edge="1" parent="1">
          <mxGeometry width="50" height="50" relative="1" as="geometry">
            <mxPoint x="520" y="189.76" as="sourcePoint" />
            <mxPoint x="560" y="189.76" as="targetPoint" />
          </mxGeometry>
        </mxCell>
        <mxCell id="DwZBgOjns3Ykn3NyLFQ3-22" value="\(u\)" style="edgeLabel;html=1;align=center;verticalAlign=middle;resizable=0;points=[];" vertex="1" connectable="0" parent="DwZBgOjns3Ykn3NyLFQ3-21">
          <mxGeometry x="-0.231" y="2" relative="1" as="geometry">
            <mxPoint as="offset" />
          </mxGeometry>
        </mxCell>
        <mxCell id="DwZBgOjns3Ykn3NyLFQ3-23" value="" style="endArrow=classic;html=1;rounded=0;" edge="1" parent="1" target="DwZBgOjns3Ykn3NyLFQ3-19">
          <mxGeometry width="50" height="50" relative="1" as="geometry">
            <mxPoint x="570" y="140" as="sourcePoint" />
            <mxPoint x="640" y="180" as="targetPoint" />
          </mxGeometry>
        </mxCell>
        <mxCell id="DwZBgOjns3Ykn3NyLFQ3-24" value="\(mg\)" style="edgeLabel;html=1;align=center;verticalAlign=middle;resizable=0;points=[];" vertex="1" connectable="0" parent="DwZBgOjns3Ykn3NyLFQ3-23">
          <mxGeometry x="-0.3286" y="-1" relative="1" as="geometry">
            <mxPoint as="offset" />
          </mxGeometry>
        </mxCell>
        <mxCell id="DwZBgOjns3Ykn3NyLFQ3-25" value="\(+\)" style="text;html=1;align=center;verticalAlign=middle;whiteSpace=wrap;rounded=0;" vertex="1" parent="1">
          <mxGeometry x="520" y="190" width="60" height="30" as="geometry" />
        </mxCell>
        <mxCell id="DwZBgOjns3Ykn3NyLFQ3-26" value="\(-\)" style="text;html=1;align=center;verticalAlign=middle;whiteSpace=wrap;rounded=0;" vertex="1" parent="1">
          <mxGeometry x="550" y="150" width="60" height="30" as="geometry" />
        </mxCell>
      </root>
    </mxGraphModel>
  </diagram>
</mxfile>
